<svg
    xmlns="http://www.w3.org/2000/svg"
    viewBox="0 0 841 595"
    id="vector">
    <path
        id="path"
        d="M 691.2 507.26 C 485.2 507.26 279.2 507.26 73.2 507.26 C 73.2 367.51 73.2 227.76 73.2 88.01 C 279.2 88.01 485.2 88.01 691.2 88.01 C 691.2 227.76 691.2 367.51 691.2 507.26 Z M 615.14 369.82 C 619.71 368.07 624.61 366.31 629.41 364.33 C 637.96 360.8 646.36 356.97 653.17 350.45 C 656.28 347.47 657.84 344.03 657.66 339.49 C 656.96 321.5 653.28 304.12 647.02 287.33 C 625.82 230.43 585.2 193.81 527.85 175.75 C 479.7 160.59 430.46 158.59 381.01 168.36 C 341.89 176.09 307.2 193.2 278.21 221.02 C 275.86 223.28 274.3 223.03 272.37 220.42 C 279.26 204.56 287.55 189.45 300.07 177.04 C 301.25 175.87 303.48 175.16 305.19 175.22 C 314.64 175.55 322.05 168.97 322.25 159.73 C 322.44 150.78 315.05 143.34 306.19 143.58 C 297.03 143.82 290.23 151.38 290.65 160.68 C 290.7 161.86 290.26 163.41 289.46 164.22 C 275.94 177.82 265.19 193.29 257.6 210.91 C 256.82 212.73 255.98 213.18 253.94 212.8 C 248.8 211.85 243.61 211.05 238.41 210.66 C 233.73 210.31 229.01 210.59 223.96 210.59 C 223.96 209.25 223.93 208.04 223.96 206.83 C 224.66 182.6 218.34 160.23 205.96 139.51 C 204.75 137.48 204.3 135.74 204.84 133.28 C 206.5 125.75 201.85 118.73 194.56 117.11 C 187.26 115.49 180 119.7 178.15 126.61 C 176.14 134.11 180.1 141.95 187.63 143.53 C 191.71 144.39 193.43 146.66 195.09 149.77 C 205.33 169.04 208.63 189.99 210.2 211.38 C 210.37 213.77 208.76 213.95 207.26 214.41 C 194.44 218.33 183.02 224.84 172.64 233.24 C 171.21 234.4 169.8 235.59 168.42 236.73 C 145 217.2 117.08 226.6 105.76 244.52 C 99.58 254.3 97.62 264.88 100.27 276.06 C 103.9 291.37 113.87 301.13 128.46 306.28 C 128.09 308.96 127.67 311.29 127.45 313.64 C 126.17 327.25 126.78 340.65 133.5 352.96 C 140.18 365.2 150.48 374.16 161.93 381.67 C 195.83 403.9 233.61 409.82 273.25 407.32 C 278.91 406.96 284.54 406.2 290.31 405.61 C 289.3 410.29 288.5 414.24 283.88 416.93 C 279.29 419.6 277.8 424.71 278.89 430.08 C 280.1 436.06 283.92 439.72 289.78 441.13 C 294.96 442.37 300.86 439.96 303.85 435.41 C 307.19 430.34 307.04 425.19 304.16 419.86 C 303.34 418.34 302.77 416 303.34 414.51 C 306.16 407.21 309.33 400.04 312.59 392.92 C 312.98 392.06 314.76 391.23 315.78 391.35 C 326.18 392.59 336.56 393.96 346.92 395.49 C 348.02 395.65 349.5 396.93 349.84 398 C 354.18 411.49 356.71 425.28 356.46 439.53 C 356.42 441.87 355.71 443.32 353.8 444.78 C 346.5 450.37 345.52 460.79 351.4 467.7 C 357.38 474.72 368.02 475.28 374.77 468.93 C 381.32 462.76 381.28 452.43 374.89 445.77 C 373.77 444.61 373.08 442.65 372.94 441 C 372.08 430.71 371.57 420.38 370.64 410.1 C 370.26 405.86 369.12 401.69 368.39 397.82 C 382.31 397.82 395.86 397.82 409.43 397.82 C 409.24 404.01 407.71 407.13 403.78 409.95 C 398.06 414.06 396.5 422.07 400.27 427.95 C 404.16 434.01 412.16 435.88 418.4 432.19 C 424.41 428.64 426.81 420.6 423.14 414.59 C 421.43 411.8 421.27 409.42 422.36 406.62 C 423.13 404.65 423.88 402.66 424.5 400.64 C 425.08 398.75 426.07 397.96 428.21 397.84 C 448.38 396.63 468.55 395.24 488.72 394.04 C 489.7 393.98 491.37 394.93 491.68 395.79 C 495.71 406.69 498.83 417.82 499.58 429.5 C 499.73 431.77 499.23 433.33 497.47 435 C 490.84 441.3 491 451.8 497.56 458.07 C 503.94 464.17 514.56 463.84 520.44 457.36 C 526.71 450.45 525.91 440.19 518.88 433.96 C 517.5 432.73 516.49 430.6 516.16 428.74 C 514.92 421.63 514.22 414.42 512.93 407.32 C 511.99 402.12 510.43 397.03 509.1 391.71 C 518.51 390.39 527.55 389.11 536.6 387.84 C 536.85 388.22 537.09 388.6 537.34 388.98 C 536 390.33 534.81 391.9 533.28 392.97 C 527.77 396.81 525.95 404.13 529.24 409.87 C 532.61 415.75 540.13 417.91 546.15 414.75 C 552.01 411.67 554.97 404.19 551.56 398.45 C 549.16 394.42 549.97 391.15 551.58 387.68 C 552.19 386.37 553.72 384.93 555.09 384.6 C 568.3 381.47 581.59 378.63 594.81 375.54 C 597.27 374.96 598.47 375.52 599.22 377.87 C 601.65 385.45 604.18 392.99 606.67 400.55 C 607.62 403.43 607.3 405.74 605.18 408.36 C 599.72 415.11 601.21 424.98 608 430.41 C 614.72 435.78 624.59 434.81 630.24 428.22 C 635.83 421.7 635.55 411.25 628.65 406.14 C 624.56 403.11 623.44 399.53 622.34 395.17 C 620.23 386.75 617.62 378.45 615.14 369.82 Z"
        fill="#ffffff"/>
    <path
        id="path_1"
        d="M 615.14 369.82 C 617.63 378.45 620.23 386.75 622.35 395.18 C 623.45 399.54 624.57 403.12 628.66 406.15 C 635.56 411.26 635.84 421.7 630.25 428.23 C 624.6 434.82 614.73 435.79 608.01 430.42 C 601.22 424.99 599.74 415.12 605.19 408.37 C 607.31 405.75 607.63 403.44 606.68 400.56 C 604.19 393 601.66 385.46 599.23 377.88 C 598.48 375.52 597.28 374.97 594.82 375.55 C 581.6 378.64 568.31 381.48 555.1 384.61 C 553.74 384.93 552.2 386.37 551.59 387.69 C 549.97 391.16 549.17 394.43 551.57 398.46 C 554.98 404.2 552.02 411.68 546.16 414.76 C 540.13 417.93 532.62 415.76 529.25 409.88 C 525.96 404.14 527.78 396.83 533.29 392.98 C 534.83 391.91 536.01 390.33 537.35 388.99 C 537.1 388.61 536.86 388.23 536.61 387.85 C 527.56 389.12 518.52 390.4 509.11 391.72 C 510.44 397.04 512 402.13 512.94 407.33 C 514.23 414.43 514.92 421.64 516.17 428.75 C 516.5 430.61 517.5 432.74 518.89 433.97 C 525.92 440.2 526.72 450.45 520.45 457.37 C 514.57 463.85 503.95 464.18 497.57 458.08 C 491.01 451.81 490.86 441.3 497.48 435.01 C 499.24 433.34 499.73 431.78 499.59 429.51 C 498.84 417.82 495.72 406.7 491.69 395.8 C 491.37 394.94 489.71 394 488.73 394.05 C 468.56 395.25 448.39 396.64 428.22 397.85 C 426.08 397.98 425.09 398.76 424.51 400.65 C 423.89 402.67 423.13 404.66 422.37 406.63 C 421.28 409.44 421.45 411.82 423.15 414.6 C 426.83 420.61 424.42 428.65 418.41 432.2 C 412.17 435.89 404.17 434.02 400.28 427.96 C 396.51 422.08 398.07 414.07 403.79 409.96 C 407.72 407.14 409.25 404.01 409.44 397.83 C 395.87 397.83 382.32 397.83 368.4 397.83 C 369.13 401.7 370.26 405.87 370.65 410.11 C 371.58 420.4 372.08 430.72 372.95 441.01 C 373.09 442.66 373.78 444.62 374.9 445.78 C 381.29 452.44 381.33 462.77 374.78 468.94 C 368.03 475.29 357.39 474.73 351.41 467.71 C 345.52 460.8 346.5 450.38 353.81 444.79 C 355.72 443.33 356.43 441.88 356.47 439.54 C 356.72 425.29 354.19 411.5 349.85 398.01 C 349.51 396.94 348.03 395.67 346.93 395.5 C 336.57 393.96 326.19 392.59 315.79 391.36 C 314.77 391.24 313 392.07 312.6 392.93 C 309.34 400.05 306.17 407.22 303.35 414.52 C 302.78 416 303.34 418.34 304.17 419.87 C 307.05 425.2 307.2 430.35 303.86 435.42 C 300.87 439.97 294.96 442.38 289.79 441.14 C 283.93 439.73 280.11 436.08 278.9 430.09 C 277.82 424.72 279.31 419.61 283.89 416.94 C 288.51 414.25 289.31 410.3 290.32 405.62 C 284.55 406.21 278.92 406.97 273.26 407.33 C 233.61 409.83 195.84 403.91 161.94 381.68 C 150.49 374.17 140.19 365.22 133.51 352.97 C 126.79 340.66 126.18 327.26 127.46 313.65 C 127.68 311.3 128.1 308.97 128.47 306.29 C 113.88 301.14 103.9 291.38 100.28 276.07 C 97.63 264.89 99.59 254.31 105.77 244.53 C 117.09 226.61 145.01 217.2 168.43 236.74 C 169.8 235.6 171.21 234.41 172.65 233.25 C 183.03 224.84 194.44 218.34 207.27 214.42 C 208.77 213.96 210.39 213.77 210.21 211.39 C 208.65 189.99 205.35 169.04 195.1 149.78 C 193.45 146.67 191.72 144.4 187.64 143.54 C 180.11 141.96 176.16 134.12 178.16 126.62 C 180.01 119.71 187.28 115.5 194.57 117.12 C 201.86 118.74 206.51 125.76 204.85 133.29 C 204.31 135.75 204.76 137.49 205.97 139.52 C 218.35 160.24 224.67 182.61 223.97 206.84 C 223.94 208.05 223.97 209.26 223.97 210.6 C 229.02 210.6 233.74 210.32 238.42 210.67 C 243.63 211.06 248.82 211.86 253.95 212.81 C 255.99 213.19 256.83 212.74 257.61 210.92 C 265.2 193.3 275.95 177.83 289.47 164.23 C 290.27 163.43 290.71 161.87 290.66 160.69 C 290.25 151.4 297.05 143.84 306.2 143.59 C 315.06 143.35 322.45 150.79 322.26 159.74 C 322.06 168.98 314.65 175.56 305.2 175.23 C 303.49 175.17 301.26 175.88 300.08 177.05 C 287.57 189.45 279.27 204.56 272.38 220.43 C 274.31 223.04 275.87 223.29 278.22 221.03 C 307.2 193.21 341.9 176.1 381.02 168.37 C 430.47 158.59 479.71 160.6 527.86 175.76 C 585.21 193.82 625.84 230.43 647.03 287.34 C 653.29 304.14 656.97 321.51 657.67 339.5 C 657.85 344.04 656.29 347.48 653.18 350.46 C 646.37 356.98 637.98 360.81 629.42 364.34 C 624.6 366.31 619.71 368.06 615.14 369.82 Z M 309.06 385.05 C 310.66 385.37 312.11 385.7 313.58 385.96 C 336.47 389.98 359.56 391.93 382.77 392.87 C 417.01 394.24 451.17 392.89 485.2 389.33 C 508 386.94 530.73 383.62 553.34 379.8 C 578.06 375.62 602.44 369.76 625.85 360.51 C 634.44 357.12 642.91 353.44 649.77 346.94 C 652.09 344.74 653.1 342.23 652.9 338.94 C 651.39 313.93 644.86 290.29 633.35 268.1 C 609.72 222.59 572.11 193.96 523.56 179.46 C 479.35 166.26 434.25 164.03 388.78 171.83 C 350.46 178.41 316.16 193.82 286.82 219.63 C 284.34 221.81 281.98 224.14 279.48 226.47 C 297.17 243.83 303.56 265.85 308.01 288.64 C 329.91 285.56 342.7 293.5 344.81 311.51 C 345.61 318.34 343.51 324.65 339.2 330.01 C 332.13 338.8 322.7 341.41 311.94 339.59 C 310.96 354.89 310.02 369.78 309.06 385.05 Z M 133.28 307.43 C 132.81 310.76 132.23 313.8 131.97 316.88 C 130.45 335.19 134.73 351.35 148.51 364.54 C 159.77 375.31 172.47 383.69 186.77 389.6 C 220.2 403.41 254.86 406.01 290.34 400.44 C 293.91 399.88 298.44 400.19 300.7 398.11 C 302.82 396.16 302.82 391.62 303.26 388.16 C 307.43 355.36 308.5 322.54 303.11 289.77 C 300.47 273.69 296.05 258.15 287.43 244.1 C 283.03 236.92 277.67 230.61 269.77 225.14 C 265.91 237.89 262.2 250.16 258.42 262.63 C 254.98 260.79 251.5 259.1 248.24 257.07 C 247.38 256.53 246.67 254.86 246.78 253.81 C 247.29 248.86 247.83 243.88 248.89 239.02 C 250.43 232.01 252.42 225.09 254.28 217.92 C 244.93 215.25 235.42 214.83 225.79 215.6 C 223.71 215.76 223.26 216.93 222.96 218.77 C 222.74 220.16 221.99 222.2 220.95 222.61 C 217.64 223.91 214.08 224.58 210.26 225.59 C 210.26 224.2 210.29 223.22 210.25 222.25 C 210.21 221.19 210.1 220.13 209.99 218.71 C 195.25 223.02 182.86 230.48 171.82 240.4 C 195.57 271.84 169.99 312.68 133.28 307.43 Z M 140.23 230.83 C 120.2 230.78 103.98 246.88 103.97 266.83 C 103.96 286.55 120.13 302.81 139.85 302.91 C 159.96 303.01 176.51 286.57 176.35 266.64 C 176.2 246.85 160.09 230.88 140.23 230.83 Z M 339.98 313.67 C 339.99 299.15 326 288.76 312.16 292.87 C 309.69 293.6 308.87 294.61 309.09 297.28 C 310.02 308.68 310.77 320.1 311.38 331.53 C 311.51 333.97 312.52 334.73 314.67 335.07 C 328.02 337.16 339.97 327.09 339.98 313.67 Z M 255.6 255.13 C 255.96 254.05 256.27 253.11 256.58 252.18 C 260.42 240.75 263.7 229.09 268.23 217.95 C 275.31 200.52 284.89 184.51 298.75 171.45 C 299.86 170.41 302.04 169.76 303.54 170.02 C 308.67 170.9 313.34 169.25 315.85 165.1 C 318.32 161.02 317.84 155.8 314.68 152.25 C 311.41 148.58 306.43 147.46 302.08 149.41 C 297.44 151.49 294.8 156.1 295.79 161.32 C 296.21 163.53 295.94 164.9 294.3 166.51 C 270.69 189.57 256.24 217.28 251.83 250.13 C 251.42 253.25 252.38 254.53 255.6 255.13 Z M 354.74 396.63 C 355.19 398.3 355.6 399.84 356.02 401.38 C 359.75 415.15 361.99 429.1 361.01 443.44 C 360.88 445.27 360.59 446.52 358.61 447.5 C 353.7 449.93 351.54 454.98 352.76 460 C 353.87 464.54 358.04 468.1 362.62 468.39 C 367.85 468.72 372.47 465.86 374.14 461.25 C 375.89 456.41 374.31 451.63 370.23 448.22 C 369.11 447.28 367.9 445.52 367.98 444.21 C 368.8 430.3 367.53 416.57 364.39 403.06 C 362.56 395.19 364.33 396.88 356.02 396.27 C 355.79 396.25 355.56 396.39 354.74 396.63 Z M 496.28 393.43 C 496.61 394.5 496.84 395.32 497.11 396.12 C 501.2 407.95 504.1 420.02 504.67 432.59 C 504.76 434.56 504.58 435.96 502.58 437.22 C 497.98 440.12 496.42 445 497.98 449.9 C 499.43 454.44 504.04 457.75 508.8 457.67 C 513.74 457.59 518.23 454.03 519.47 449.23 C 520.72 444.36 518.57 439.65 514.16 436.69 C 512.95 435.88 511.64 434.23 511.57 432.89 C 510.92 421.01 509.04 409.36 505.57 397.98 C 503.66 391.71 505.3 392.25 497.74 392.94 C 497.4 392.96 497.06 393.16 496.28 393.43 Z M 215.97 219.88 C 217.06 218.41 218.23 217.51 218.42 216.44 C 218.9 213.76 219.06 211 219.16 208.26 C 220.02 183.23 213.39 160.24 200.01 139.17 C 198.81 137.29 198.52 135.92 199.57 133.81 C 201.32 130.3 200.15 126.17 197.22 123.68 C 194.21 121.11 189.82 120.87 186.46 123.1 C 183.23 125.25 181.78 129.2 182.86 132.92 C 183.94 136.62 187.27 139.58 191.13 139.23 C 194.02 138.97 195.08 140.39 196.31 142.33 C 204.44 155.16 209.2 169.3 211.65 184.13 C 213.55 195.53 214.46 207.08 215.97 219.88 Z M 603.6 373.2 C 606.58 383.69 609.42 393.59 612.2 403.49 C 612.91 406 612.73 407.95 610.29 409.95 C 605.66 413.77 605.65 420.94 609.75 425.34 C 613.08 428.92 617.2 429.72 621.73 428.34 C 625.77 427.11 628.78 423.05 629.07 418.85 C 629.41 413.96 627.28 409.81 622.86 407.93 C 620.4 406.89 619.57 405.51 618.96 402.92 C 616.93 394.22 614.57 385.57 611.92 377.03 C 609.95 370.68 609.67 370.77 603.37 373.39 C 603.29 373.44 603.21 373.56 603.6 373.2 Z M 301.51 403.55 C 297.86 403.45 295.4 404.39 294.79 408.35 C 294.42 410.78 293.69 413.23 292.7 415.48 C 292.1 416.84 290.9 418.31 289.59 418.9 C 285.55 420.74 283.34 423.87 283.6 428.24 C 283.82 431.93 286.51 435.25 289.96 436.11 C 294.19 437.16 298.14 435.56 300.25 431.94 C 302.3 428.43 301.95 424.33 298.86 421.35 C 297.23 419.78 297.03 418.42 297.66 416.44 C 299.02 412.23 300.21 407.97 301.51 403.55 Z M 419.94 398.31 C 416.6 397.37 414.85 398.33 414.18 401.46 C 413.61 404.13 412.92 406.81 411.86 409.32 C 411.28 410.69 410.07 412.16 408.76 412.78 C 405.21 414.48 402.82 417.61 403.01 421.16 C 403.21 424.9 406.02 428.15 409.86 429.06 C 413.17 429.85 416.95 428.16 418.79 425.06 C 420.74 421.78 420.52 417.87 417.59 415.15 C 415.87 413.55 415.84 412.03 416.36 410.2 C 417.49 406.26 418.71 402.36 419.94 398.31 Z M 546.63 386.41 C 543.42 385.83 542.09 387.18 541.6 389.77 C 540.97 393.07 540.04 395.74 536.21 397.23 C 532.14 398.8 531.32 404.12 533.75 407.79 C 536.21 411.5 540.96 412.5 544.54 410.05 C 548.23 407.53 549.53 402.42 546.53 399.35 C 543.89 396.65 544.28 394.21 545.24 391.3 C 545.73 389.77 546.12 388.21 546.63 386.41 Z"
        fill="#000000"/>
    <path
        id="path_2"
        d="M 309.06 385.05 C 310.02 369.78 310.96 354.88 311.93 339.61 C 322.68 341.43 332.12 338.82 339.19 330.03 C 343.5 324.67 345.6 318.36 344.8 311.53 C 342.7 293.52 329.9 285.58 308 288.66 C 303.55 265.86 297.17 243.85 279.47 226.49 C 281.97 224.15 284.33 221.83 286.81 219.65 C 316.15 193.83 350.46 178.42 388.77 171.85 C 434.24 164.05 479.33 166.28 523.55 179.48 C 572.11 193.98 609.72 222.61 633.34 268.12 C 644.86 290.3 651.39 313.95 652.89 338.96 C 653.09 342.25 652.08 344.76 649.76 346.96 C 642.9 353.46 634.43 357.14 625.84 360.53 C 602.43 369.77 578.05 375.64 553.33 379.82 C 530.72 383.64 507.99 386.96 485.19 389.35 C 451.16 392.91 417 394.27 382.76 392.89 C 359.55 391.96 336.46 390.01 313.57 385.98 C 312.11 385.7 310.66 385.38 309.06 385.05 Z M 551.83 237.05 C 551.84 216.53 535.31 199.93 514.78 199.83 C 494.06 199.73 477.32 216.31 477.27 236.97 C 477.22 257.57 494.03 274.3 514.71 274.22 C 535.22 274.14 551.82 257.52 551.83 237.05 Z M 556.58 343.26 C 556.61 322.58 539.88 305.83 519.27 305.9 C 498.79 305.97 482.19 322.62 482.18 343.11 C 482.16 363.83 498.89 380.56 519.49 380.43 C 540.12 380.29 556.55 363.83 556.58 343.26 Z M 447.89 295.04 C 447.93 274.26 431.38 257.7 410.62 257.75 C 389.99 257.8 373.53 274.24 373.51 294.82 C 373.49 315.47 389.87 332.03 410.4 332.1 C 431.24 332.18 447.85 315.76 447.89 295.04 Z M 335.77 214.32 C 321.72 214.35 310.66 225.47 310.68 239.55 C 310.7 253.29 321.89 264.53 335.64 264.64 C 349.7 264.75 360.94 253.39 360.88 239.11 C 360.83 225.32 349.65 214.29 335.77 214.32 Z M 611.86 292.84 C 611.92 280.26 602.02 270.11 589.61 270.01 C 577.04 269.91 566.88 279.81 566.8 292.24 C 566.72 305.1 576.49 315.15 589.19 315.28 C 601.59 315.41 611.8 305.3 611.86 292.84 Z M 351.76 361.99 C 351.73 373.27 360.66 382.24 371.89 382.22 C 383.07 382.19 392.2 373.01 392.07 361.94 C 391.94 350.89 383.01 341.95 372.02 341.87 C 360.81 341.77 351.79 350.73 351.76 361.99 Z M 447.22 210 C 447.17 198.89 438.28 190.07 427.21 190.14 C 416.11 190.22 407.29 199.06 407.29 210.14 C 407.29 221.35 416.42 230.42 427.53 230.23 C 438.61 230.05 447.27 221.15 447.22 210 Z"
        fill="#ffffff"/>
    <path
        id="path_3"
        d="M 133.28 307.43 C 169.99 312.67 195.57 271.84 171.84 240.39 C 182.88 230.47 195.27 223.01 210.01 218.7 C 210.12 220.13 210.22 221.19 210.27 222.24 C 210.31 223.22 210.28 224.19 210.28 225.58 C 214.1 224.57 217.66 223.9 220.97 222.6 C 222.01 222.19 222.75 220.16 222.98 218.76 C 223.28 216.91 223.74 215.75 225.81 215.59 C 235.44 214.83 244.95 215.25 254.3 217.91 C 252.44 225.09 250.44 232 248.91 239.01 C 247.85 243.86 247.31 248.84 246.8 253.8 C 246.69 254.86 247.4 256.53 248.26 257.06 C 251.52 259.09 255 260.78 258.44 262.62 C 262.22 250.15 265.93 237.87 269.79 225.13 C 277.69 230.59 283.05 236.91 287.45 244.09 C 296.07 258.15 300.48 273.68 303.13 289.76 C 308.52 322.54 307.45 355.35 303.28 388.15 C 302.84 391.61 302.84 396.15 300.72 398.1 C 298.46 400.18 293.93 399.87 290.36 400.43 C 254.88 406 220.21 403.4 186.79 389.59 C 172.48 383.68 159.78 375.3 148.53 364.53 C 134.75 351.35 130.47 335.18 131.99 316.87 C 132.23 313.81 132.81 310.76 133.28 307.43 Z M 283.12 309.94 C 283.14 284.14 262.36 263.35 236.54 263.33 C 210.77 263.31 189.98 284.13 189.97 309.96 C 189.96 335.69 210.86 356.63 236.56 356.65 C 262.24 356.67 283.1 335.74 283.12 309.94 Z"
        fill="#ffffff"/>
    <path
        id="path_4"
        d="M 140.23 230.83 C 160.1 230.88 176.21 246.85 176.36 266.64 C 176.51 286.57 159.96 303.01 139.86 302.91 C 120.14 302.81 103.97 286.55 103.98 266.83 C 103.98 246.88 120.19 230.78 140.23 230.83 Z M 121.45 272.25 C 128.57 272.27 133.2 267.56 133.2 260.27 C 133.2 253.06 128.42 248.15 121.44 248.2 C 114.63 248.24 109.95 253.06 109.89 260.1 C 109.83 267.46 114.36 272.23 121.45 272.25 Z"
        fill="#ffffff"/>
    <path
        id="path_5"
        d="M 339.98 313.67 C 339.97 327.09 328.03 337.16 314.67 335.06 C 312.51 334.72 311.51 333.96 311.38 331.52 C 310.77 320.1 310.02 308.68 309.09 297.27 C 308.87 294.6 309.69 293.59 312.16 292.86 C 326 288.77 339.98 299.16 339.98 313.67 Z"
        fill="#ffffff"/>
    <path
        id="path_6"
        d="M 255.6 255.13 C 252.38 254.53 251.42 253.25 251.83 250.13 C 256.23 217.28 270.68 189.57 294.3 166.51 C 295.94 164.91 296.21 163.53 295.79 161.32 C 294.81 156.1 297.44 151.49 302.08 149.41 C 306.43 147.46 311.41 148.58 314.68 152.25 C 317.84 155.8 318.32 161.02 315.85 165.1 C 313.34 169.25 308.67 170.9 303.54 170.02 C 302.04 169.76 299.86 170.41 298.75 171.45 C 284.89 184.51 275.31 200.52 268.23 217.95 C 263.7 229.1 260.42 240.75 256.58 252.18 C 256.27 253.11 255.96 254.05 255.6 255.13 Z"
        fill="#ffffff"/>
    <path
        id="path_7"
        d="M 354.74 396.63 C 355.55 396.39 355.79 396.24 356.02 396.26 C 364.33 396.87 362.56 395.18 364.39 403.05 C 367.53 416.56 368.8 430.29 367.98 444.2 C 367.9 445.51 369.11 447.27 370.23 448.21 C 374.31 451.62 375.88 456.4 374.14 461.24 C 372.48 465.85 367.86 468.72 362.62 468.38 C 358.04 468.09 353.87 464.54 352.76 459.99 C 351.54 454.98 353.7 449.93 358.61 447.49 C 360.58 446.51 360.88 445.26 361.01 443.43 C 361.99 429.09 359.75 415.14 356.02 401.37 C 355.61 399.85 355.19 398.3 354.74 396.63 Z"
        fill="#ffffff"/>
    <path
        id="path_8"
        d="M 496.28 393.43 C 497.06 393.16 497.39 392.96 497.75 392.93 C 505.31 392.24 503.66 391.7 505.58 397.97 C 509.05 409.35 510.93 421 511.58 432.88 C 511.65 434.21 512.97 435.87 514.17 436.68 C 518.58 439.63 520.73 444.35 519.48 449.22 C 518.24 454.03 513.75 457.58 508.81 457.66 C 504.05 457.74 499.44 454.43 497.99 449.89 C 496.42 444.99 497.98 440.11 502.59 437.21 C 504.59 435.95 504.77 434.55 504.68 432.58 C 504.11 420.02 501.2 407.94 497.12 396.11 C 496.84 395.32 496.61 394.5 496.28 393.43 Z"
        fill="#ffffff"/>
    <path
        id="path_9"
        d="M 215.97 219.88 C 214.47 207.08 213.55 195.53 211.66 184.14 C 209.21 169.31 204.45 155.17 196.32 142.34 C 195.09 140.4 194.02 138.98 191.14 139.24 C 187.27 139.59 183.95 136.63 182.87 132.93 C 181.78 129.21 183.23 125.26 186.47 123.11 C 189.83 120.88 194.21 121.12 197.23 123.69 C 200.15 126.18 201.33 130.31 199.58 133.82 C 198.53 135.93 198.82 137.3 200.02 139.18 C 213.41 160.26 220.03 183.24 219.17 208.27 C 219.08 211 218.92 213.76 218.43 216.45 C 218.22 217.51 217.06 218.41 215.97 219.88 Z"
        fill="#ffffff"/>
    <path
        id="path_10"
        d="M 603.6 373.2 C 603.21 373.56 603.29 373.44 603.4 373.4 C 609.7 370.78 609.98 370.69 611.95 377.04 C 614.6 385.58 616.95 394.22 618.99 402.93 C 619.6 405.53 620.42 406.9 622.89 407.94 C 627.31 409.81 629.44 413.97 629.1 418.86 C 628.8 423.06 625.8 427.12 621.76 428.35 C 617.23 429.73 613.11 428.93 609.78 425.35 C 605.68 420.95 605.69 413.78 610.32 409.96 C 612.75 407.95 612.93 406 612.23 403.5 C 609.42 393.58 606.58 383.69 603.6 373.2 Z"
        fill="#ffffff"/>
    <path
        id="path_11"
        d="M 301.51 403.55 C 300.2 407.97 299.02 412.23 297.67 416.44 C 297.03 418.42 297.23 419.77 298.87 421.35 C 301.97 424.34 302.31 428.44 300.26 431.94 C 298.15 435.56 294.2 437.16 289.97 436.11 C 286.52 435.25 283.83 431.93 283.61 428.24 C 283.35 423.87 285.56 420.73 289.6 418.9 C 290.91 418.3 292.11 416.83 292.71 415.48 C 293.7 413.23 294.43 410.78 294.8 408.35 C 295.4 404.39 297.86 403.45 301.51 403.55 Z"
        fill="#ffffff"/>
    <path
        id="path_12"
        d="M 419.94 398.31 C 418.71 402.36 417.49 406.26 416.36 410.19 C 415.83 412.02 415.86 413.54 417.59 415.14 C 420.52 417.87 420.74 421.77 418.79 425.05 C 416.95 428.15 413.17 429.84 409.86 429.05 C 406.03 428.13 403.21 424.89 403.01 421.15 C 402.82 417.6 405.21 414.47 408.76 412.77 C 410.07 412.14 411.29 410.68 411.86 409.31 C 412.91 406.81 413.6 404.12 414.18 401.45 C 414.85 398.33 416.6 397.37 419.94 398.31 Z"
        fill="#ffffff"/>
    <path
        id="path_13"
        d="M 546.63 386.41 C 546.12 388.21 545.73 389.77 545.23 391.29 C 544.27 394.2 543.89 396.64 546.52 399.34 C 549.52 402.42 548.21 407.53 544.53 410.04 C 540.95 412.49 536.2 411.49 533.74 407.78 C 531.31 404.11 532.14 398.8 536.2 397.22 C 540.04 395.73 540.97 393.06 541.59 389.76 C 542.09 387.18 543.42 385.83 546.63 386.41 Z"
        fill="#ffffff"/>
    <path
        id="path_14"
        d="M 551.83 237.05 C 551.82 257.52 535.23 274.14 514.71 274.22 C 494.04 274.3 477.22 257.57 477.27 236.97 C 477.32 216.3 494.06 199.72 514.78 199.83 C 535.31 199.93 551.83 216.53 551.83 237.05 Z M 514.54 204.74 C 496.58 204.74 482.2 219.05 482.19 236.94 C 482.18 254.84 496.5 269.27 514.39 269.38 C 532.38 269.48 547.03 254.88 546.96 236.91 C 546.89 219 532.51 204.74 514.54 204.74 Z"
        fill="#000000"/>
    <path
        id="path_15"
        d="M 556.58 343.26 C 556.55 363.83 540.11 380.29 519.48 380.43 C 498.88 380.56 482.15 363.83 482.17 343.11 C 482.19 322.62 498.78 305.98 519.26 305.9 C 539.88 305.83 556.62 322.58 556.58 343.26 Z M 519.22 375.55 C 537.07 375.61 551.72 361.2 551.86 343.45 C 552 325.61 537.21 310.73 519.36 310.76 C 501.65 310.8 487 325.38 486.84 343.12 C 486.68 360.68 501.47 375.49 519.22 375.55 Z"
        fill="#000000"/>
    <path
        id="path_16"
        d="M 447.89 295.04 C 447.85 315.77 431.24 332.18 410.39 332.1 C 389.86 332.02 373.48 315.46 373.5 294.82 C 373.52 274.24 389.99 257.8 410.61 257.75 C 431.38 257.7 447.93 274.26 447.89 295.04 Z M 410.94 262.47 C 393.24 262.34 378.36 276.92 378.19 294.58 C 378.01 312.37 392.83 327.37 410.62 327.4 C 428.28 327.44 443.12 312.71 443.2 295.08 C 443.28 277.43 428.61 262.6 410.94 262.47 Z"
        fill="#000000"/>
    <path
        id="path_17"
        d="M 335.77 214.32 C 349.66 214.29 360.83 225.33 360.89 239.11 C 360.95 253.38 349.7 264.75 335.65 264.64 C 321.89 264.53 310.71 253.29 310.69 239.55 C 310.65 225.47 321.71 214.34 335.77 214.32 Z M 335.88 259.73 C 346.94 259.67 356.12 250.55 356.22 239.52 C 356.32 228.44 346.9 219.03 335.74 219.06 C 324.5 219.09 315.39 228.37 315.53 239.66 C 315.65 250.83 324.75 259.79 335.88 259.73 Z"
        fill="#000000"/>
    <path
        id="path_18"
        d="M 611.86 292.84 C 611.8 305.3 601.59 315.4 589.19 315.28 C 576.49 315.15 566.72 305.1 566.8 292.24 C 566.87 279.81 577.03 269.91 589.61 270.01 C 602.02 270.11 611.92 280.26 611.86 292.84 Z M 589.33 310.39 C 599.09 310.38 607.27 302.19 607.19 292.52 C 607.11 282.91 599.14 275.03 589.45 274.98 C 579.5 274.92 571.49 282.76 571.44 292.59 C 571.39 302.3 579.53 310.4 589.33 310.39 Z"
        fill="#000000"/>
    <path
        id="path_19"
        d="M 351.76 361.99 C 351.79 350.74 360.81 341.78 372.02 341.86 C 383.01 341.94 391.94 350.88 392.07 361.93 C 392.2 373.01 383.07 382.19 371.89 382.21 C 360.66 382.24 351.73 373.27 351.76 361.99 Z M 372.39 346.8 C 363.89 346.48 356.71 353.2 356.48 361.7 C 356.25 369.92 362.99 377.03 371.33 377.4 C 379.56 377.76 386.79 371.07 387.16 362.76 C 387.53 354.16 381.03 347.13 372.39 346.8 Z"
        fill="#000000"/>
    <path
        id="path_20"
        d="M 447.22 210 C 447.27 221.15 438.61 230.05 427.54 230.23 C 416.43 230.41 407.29 221.35 407.3 210.14 C 407.3 199.07 416.12 190.22 427.22 190.14 C 438.28 190.06 447.17 198.89 447.22 210 Z M 427.37 195.03 C 418.98 195.01 412.09 201.76 412.03 210.08 C 411.97 218.29 418.93 225.32 427.21 225.4 C 435.46 225.48 442.44 218.54 442.48 210.24 C 442.5 201.81 435.8 195.05 427.37 195.03 Z"
        fill="#000000"/>
    <path
        id="path_21"
        d="M 283.12 309.94 C 283.1 335.74 262.24 356.67 236.56 356.65 C 210.86 356.63 189.96 335.69 189.97 309.96 C 189.98 284.13 210.77 263.32 236.54 263.33 C 262.36 263.35 283.14 284.14 283.12 309.94 Z M 236.38 268.18 C 213.43 268.28 194.69 287.05 194.68 309.93 C 194.67 333.02 213.52 351.71 236.73 351.66 C 259.85 351.61 278.54 332.73 278.39 309.58 C 278.25 286.72 259.33 268.08 236.38 268.18 Z"
        fill="#000000"/>
    <path
        id="path_22"
        d="M 121.45 272.25 C 114.36 272.23 109.83 267.47 109.89 260.1 C 109.95 253.06 114.63 248.24 121.44 248.2 C 128.42 248.16 133.21 253.07 133.2 260.27 C 133.2 267.55 128.57 272.27 121.45 272.25 Z"
        fill="#000000"/>
    <path
        id="path_23"
        d="M 514.54 204.74 C 532.52 204.74 546.89 219 546.96 236.9 C 547.03 254.87 532.38 269.47 514.39 269.37 C 496.5 269.27 482.18 254.83 482.19 236.93 C 482.2 219.05 496.58 204.74 514.54 204.74 Z"
        fill="#ffffff"/>
    <path
        id="path_24"
        d="M 519.22 375.55 C 501.47 375.49 486.68 360.68 486.84 343.13 C 487 325.38 501.65 310.8 519.36 310.77 C 537.21 310.73 552 325.61 551.86 343.46 C 551.72 361.2 537.07 375.6 519.22 375.55 Z"
        fill="#ffffff"/>
    <path
        id="path_25"
        d="M 410.94 262.47 C 428.61 262.6 443.27 277.43 443.19 295.08 C 443.11 312.71 428.27 327.43 410.61 327.4 C 392.82 327.36 378 312.36 378.18 294.58 C 378.37 276.92 393.24 262.34 410.94 262.47 Z"
        fill="#ffffff"/>
    <path
        id="path_26"
        d="M 335.88 259.73 C 324.75 259.79 315.66 250.82 315.52 239.66 C 315.39 228.37 324.49 219.09 335.73 219.06 C 346.89 219.03 356.31 228.44 356.21 239.52 C 356.12 250.55 346.93 259.68 335.88 259.73 Z"
        fill="#ffffff"/>
    <path
        id="path_27"
        d="M 589.33 310.39 C 579.53 310.4 571.39 302.3 571.44 292.58 C 571.49 282.75 579.5 274.91 589.45 274.97 C 599.14 275.03 607.11 282.91 607.19 292.51 C 607.27 302.19 599.09 310.38 589.33 310.39 Z"
        fill="#ffffff"/>
    <path
        id="path_28"
        d="M 372.39 346.8 C 381.03 347.13 387.53 354.16 387.15 362.76 C 386.79 371.07 379.56 377.76 371.32 377.4 C 362.98 377.03 356.24 369.92 356.47 361.7 C 356.72 353.2 363.89 346.48 372.39 346.8 Z"
        fill="#ffffff"/>
    <path
        id="path_29"
        d="M 427.37 195.03 C 435.8 195.05 442.5 201.81 442.47 210.24 C 442.44 218.54 435.45 225.48 427.2 225.4 C 418.92 225.32 411.96 218.3 412.02 210.08 C 412.09 201.75 418.98 195 427.37 195.03 Z"
        fill="#ffffff"/>
    <path
        id="path_30"
        d="M 236.38 268.18 C 259.33 268.08 278.25 286.72 278.4 309.58 C 278.55 332.73 259.86 351.61 236.74 351.66 C 213.52 351.72 194.68 333.02 194.69 309.93 C 194.69 287.05 213.43 268.28 236.38 268.18 Z M 227.59 303.95 C 227.63 296.65 222.89 291.67 215.92 291.69 C 209.13 291.71 204.34 296.63 204.27 303.66 C 204.2 310.92 208.93 315.82 216 315.82 C 222.96 315.8 227.55 311.1 227.59 303.95 Z"
        fill="#ffffff"/>
    <path
        id="path_31"
        d="M 227.59 303.95 C 227.55 311.11 222.96 315.81 216.01 315.82 C 208.94 315.83 204.21 310.93 204.28 303.66 C 204.35 296.63 209.13 291.71 215.93 291.69 C 222.89 291.66 227.63 296.64 227.59 303.95 Z"
        fill="#000000"/>
</svg>
